<?xml version="1.0" encoding="UTF-8" standalone="no"?>
<svg
   xmlns:dc="http://purl.org/dc/elements/1.1/"
   xmlns:cc="http://creativecommons.org/ns#"
   xmlns:rdf="http://www.w3.org/1999/02/22-rdf-syntax-ns#"
   xmlns:svg="http://www.w3.org/2000/svg"
   xmlns="http://www.w3.org/2000/svg"
   xmlns:xlink="http://www.w3.org/1999/xlink"
   xmlns:sodipodi="http://sodipodi.sourceforge.net/DTD/sodipodi-0.dtd"
   xmlns:inkscape="http://www.inkscape.org/namespaces/inkscape"
   id="Layer_1"
   data-name="Layer 1"
   viewBox="0 0 240 240"
   version="1.1"
   sodipodi:docname="logo.svg"
   inkscape:version="0.92.2 (5c3e80d, 2017-08-06)"
   inkscape:export-filename="D:\Source\Git\spectre\graphics\png\logo-small.png"
   inkscape:export-xdpi="25.6"
   inkscape:export-ydpi="25.6">
  <metadata
     id="metadata3808">
    <rdf:RDF>
      <cc:Work
         rdf:about="">
        <dc:format>image/svg+xml</dc:format>
        <dc:type
           rdf:resource="http://purl.org/dc/dcmitype/StillImage" />
        <dc:title>Specter Logo Regular</dc:title>
      </cc:Work>
    </rdf:RDF>
  </metadata>
  <sodipodi:namedview
     pagecolor="#ffffff"
     bordercolor="#666666"
     borderopacity="1"
     objecttolerance="10"
     gridtolerance="10"
     guidetolerance="10"
     inkscape:pageopacity="0"
     inkscape:pageshadow="2"
     inkscape:window-width="1920"
     inkscape:window-height="1017"
     id="namedview3806"
     showgrid="false"
     inkscape:zoom="0.69532167"
     inkscape:cx="-90.383762"
     inkscape:cy="96.341797"
     inkscape:window-x="-8"
     inkscape:window-y="-8"
     inkscape:window-maximized="1"
     inkscape:current-layer="layer4" />
  <defs
     id="defs3775">
    <linearGradient
       inkscape:collect="always"
       id="linearGradient8431">
      <stop
         style="stop-color:#000000;stop-opacity:1;"
         offset="0"
         id="stop8427" />
      <stop
         style="stop-color:#000000;stop-opacity:0;"
         offset="1"
         id="stop8429" />
    </linearGradient>
    <linearGradient
       inkscape:collect="always"
       id="linearGradient8395">
      <stop
         style="stop-color:#ffffff;stop-opacity:1;"
         offset="0"
         id="stop8391" />
      <stop
         style="stop-color:#ffffff;stop-opacity:0;"
         offset="1"
         id="stop8393" />
    </linearGradient>
    <style
       id="style3773">.cls-1,.cls-4{fill:#fff;}.cls-1,.cls-2,.cls-4,.cls-5{stroke:#231f20;stroke-miterlimit:10;}.cls-1{stroke-width:5px;}.cls-2,.cls-3{fill:#231f20;}.cls-2{stroke-width:3px;}.cls-4,.cls-5{stroke-width:4px;}.cls-5{fill:none;}</style>
    <linearGradient
       inkscape:collect="always"
       xlink:href="#linearGradient8395"
       id="linearGradient8399"
       x1="120.79025"
       y1="170.5511"
       x2="234.759"
       y2="170.5511"
       gradientUnits="userSpaceOnUse" />
    <linearGradient
       inkscape:collect="always"
       xlink:href="#linearGradient8431"
       id="linearGradient8433"
       x1="120.79025"
       y1="170.5511"
       x2="234.759"
       y2="170.5511"
       gradientUnits="userSpaceOnUse"
       gradientTransform="translate(4.3145499,10.067283)" />
  </defs>
  <title
     id="title3777">Specter Logo Regular</title>
  <g
     id="g7825"
     transform="matrix(2.7263345,0,0,2.7263345,-7.022134,-29.717351)">
    <path
       style="display:inline;fill:#dddddd;fill-opacity:1;stroke:#000000;stroke-width:0.69541162;stroke-miterlimit:4;stroke-dasharray:none;stroke-opacity:1"
       id="path3779-7"
       d="m 48.888535,79.347564 c 8.08858,0 14.78911,-1.56586 20.00879,-4.69757 5.09982,-3.05862 8.69947,-13.94652 2.60984,-17.22437 -2.62917,-1.41622 -9.98699,-0.5463 -16.27768,0.76553 -6.29068,1.31184 -35.95782,4.58621 -35.04921,7.86406 0.90861,3.27785 17.92478,13.29235 28.70826,13.29235 z"
       class="cls-1"
       inkscape:connector-curvature="0" />
    <g
       transform="translate(-221.10196,-52.335313)"
       style="display:inline;stroke:#000000;stroke-opacity:1"
       id="g7677">
      <path
         inkscape:connector-curvature="0"
         class="cls-2"
         d="m 232.99369,102.9757 c 0.993,0 1.73871,4.94179 5.69523,6.59163 2.03622,0.84617 6.95483,0 6.95483,0 l -1.00845,8.72831 c 0,0 -2.96353,1.15913 -6.95483,-0.49071 a 11.089082,11.089082 0 0 1 -6.43707,-6.59162 c -0.93118,-2.68147 0.34387,-8.23761 1.75029,-8.23761 z"
         id="path3781-0"
         style="fill:#00000f;fill-opacity:0.94117647;stroke:#000000;stroke-width:0.93300003;stroke-miterlimit:4;stroke-dasharray:none;stroke-opacity:1" />
      <path
         inkscape:connector-curvature="0"
         class="cls-2"
         d="m 279.33214,110.79988 c 9.50493,7.00119 12.91666,10.43224 13.90966,17.38706 0.86935,6.08548 -0.65298,10.43224 -3.26491,10.19656 -1.00072,-0.0927 -0.82685,-3.58561 -2.82056,-6.73074 a 31.057155,31.057155 0 0 0 -12.61529,-11.29 c -6.33662,-3.02921 4.7911,-9.56288 4.7911,-9.56288 z"
         id="path3783-4"
         style="fill:#00000f;fill-opacity:0.94117647;stroke:#000000;stroke-width:0.93300003;stroke-miterlimit:4;stroke-dasharray:none;stroke-opacity:1" />
      <path
         inkscape:connector-curvature="0"
         class="cls-2"
         d="m 304.79534,109.09941 c 0.86936,4.29267 -9.59461,6.91659 -12.20266,6.91659 -2.60806,0 -9.6363,-0.81526 -12.24436,-2.55397 -2.60806,-1.7387 1.73871,-6.95482 5.21612,-6.95482 3.47741,0 5.1951,0.28449 9.13765,2.11497 4.00839,1.86106 9.74552,-1.22671 10.09325,0.47723 z"
         id="path3785-7"
         style="fill:#00000f;fill-opacity:0.94117647;stroke:#000000;stroke-width:0.93300003;stroke-miterlimit:4;stroke-dasharray:none;stroke-opacity:1"
         sodipodi:nodetypes="cssssc" />
      <path
         inkscape:connector-curvature="0"
         class="cls-3"
         d="m 251.28102,114.46662 c -4.41632,0.50229 -13.15621,2.18691 -16.5718,11.52569 -3.4156,9.33878 1.19391,13.75124 2.60806,14.91038 1.08958,0.88867 2.19463,-0.0232 2.87852,-1.89327 0.68389,-1.87007 0.0309,-7.66575 5.79569,-11.90047 5.76477,-4.23472 8.50034,-3.55469 8.50034,-3.55469 z"
         id="path3787-5"
         style="fill:#00000f;fill-opacity:0.94117647;stroke:#000000;stroke-width:0.93300003;stroke-miterlimit:4;stroke-dasharray:none;stroke-opacity:1" />
      <path
         inkscape:connector-curvature="0"
         class="cls-3"
         d="m 246.44741,123.51562 c -2.44191,10.8418 0.67617,18.57325 5.02293,23.63868 3.09104,3.60492 8.35738,3.01762 6.95483,0.1816 -1.73871,-3.51219 -2.46124,-7.69281 -1.73871,-15.68314 0.72253,-7.99032 6.34821,-13.85555 6.34821,-13.85555 l -10.89589,-5.23158 c 0,0 -3.50832,1.2596 -5.69137,10.94999 z"
         id="path3789-3"
         style="fill:#00000f;fill-opacity:0.94117647;stroke:#000000;stroke-width:0.93300003;stroke-miterlimit:4;stroke-dasharray:none;stroke-opacity:1" />
      <path
         inkscape:connector-curvature="0"
         class="cls-3"
         d="m 272.59756,147.31271 c 0,2.12509 2.25259,3.47741 4.13812,1.56484 2.10576,-2.12509 4.70223,-7.48803 2.8167,-18.89781 -1.88553,-11.40977 -12.24049,-19.12577 -12.24049,-19.12577 l -10.36269,7.60781 c 0,0 4.42404,4.69064 10.37042,14.07193 4.40858,6.95483 5.27794,12.87802 5.27794,14.779 z"
         id="path3791-7"
         style="fill:#00000f;fill-opacity:0.94117647;stroke:#000000;stroke-width:0.93300003;stroke-miterlimit:4;stroke-dasharray:none;stroke-opacity:1" />
    </g>
    <path
       sodipodi:nodetypes="cccssccscccccccc"
       style="display:inline;fill:#ffffff;fill-opacity:1;stroke:#404040;stroke-width:0.93300003;stroke-linecap:butt;stroke-linejoin:miter;stroke-miterlimit:4;stroke-dasharray:none;stroke-opacity:1;paint-order:normal"
       id="path3793-1"
       d="m 34.977895,78.459704 c -5.98502,1.40641 -13.90965,0.86935 -18.25642,-2.60807 -1.96667,-1.57256 -4.31972,-3.82901 -2.60806,-7.82418 2.60806,-6.08547 8.69353,-6.08547 8.69353,-12.17094 0,-3.59332 -2.04394,-7.77008 -2.60806,-11.2475 -0.56411,-3.47741 -2.60805,-6.95482 -0.86935,-15.62904 2.07486,-10.37041 10.27382,-15.91882 20.26172,-16.5293 14.5124,-0.85776 21.42086,6.09707 22.33658,13.90965 0.91572,7.81259 0.0464,12.12072 -0.35933,15.57495 -0.51002,4.29267 0.35933,5.21611 1.81985,6.95483 1.25959,1.50301 7.15574,2.60806 8.97558,4.34676 1.81985,1.73871 1.6224,2.60928 1.6224,2.60928 0,0 -3.44264,-1.32141 -5.21613,-0.92344 -2.63896,0.59116 -4.23044,1.9384 -5.96915,3.53028 -3.64742,3.34218 -6.75777,6.49117 -9.56288,9.56288 -5.20453,5.6991 -9.9995,8.49649 -18.26028,10.44384 z"
       class="cls-1"
       inkscape:connector-curvature="0" />
    <g
       transform="matrix(0.66594544,0,0,0.66594544,-0.77324475,2.7973375)"
       style="display:inline;fill:#000000;fill-opacity:1"
       id="g6677">
      <path
         inkscape:connector-curvature="0"
         class="cls-3"
         d="m 41.065517,43.987083 c 0,4.061374 -1.264828,4.931669 -2.831358,4.931669 -1.56653,0 -2.831358,-0.847087 -2.831358,-4.931669 0,-4.084583 2.210548,-7.391702 3.771276,-7.391702 1.560728,0 1.89144,3.312921 1.89144,7.391702 z"
         id="path3795-8"
         style="fill:#000000;fill-opacity:1;stroke:#000000;stroke-width:1.10000002;stroke-miterlimit:4;stroke-dasharray:none;stroke-opacity:1" />
      <path
         inkscape:connector-curvature="0"
         class="cls-3"
         d="m 63.258028,42.159464 c 0,4.513928 -1.560728,5.453846 -3.481178,5.453846 -1.92045,0 -3.481178,-0.934116 -3.481178,-5.453846 0,-4.51973 2.721121,-8.174967 4.641571,-8.174967 1.92045,0 2.320785,3.661039 2.320785,8.174967 z"
         id="path3797-5"
         style="fill:#000000;fill-opacity:1;stroke:#000000;stroke-width:1.10000002;stroke-miterlimit:4;stroke-dasharray:none;stroke-opacity:1" />
    </g>
    <g
       style="display:inline;stroke:#00000f;stroke-width:0.89999998;stroke-linecap:butt;stroke-linejoin:round;stroke-miterlimit:4;stroke-dasharray:none;stroke-opacity:0.94117647;paint-order:normal"
       transform="translate(-10.141495,-4.3735723)"
       id="g7020">
      <path
         inkscape:connector-curvature="0"
         class="cls-4"
         d="m 21.816761,39.958789 c 0.07728,-0.965948 1.190048,-2.380095 2.97512,-2.975119 1.785072,-0.595024 6.954825,-0.803669 8.739897,-0.208645 1.785072,0.595024 1.993716,0.803669 2.584876,1.993716 1.097317,2.194634 0.595025,8.113963 0,9.307874 -0.533203,1.062543 -0.946629,1.684613 -3.566279,1.993717 -2.619651,0.309103 -5.181345,0.513884 -6.954825,0.208644 -1.854621,-0.320694 -2.584878,-0.803669 -3.179901,-2.584876 -0.382516,-1.135955 -0.707074,-6.41003 -0.598888,-7.735311 z"
         id="path3799-7"
         style="fill:#ffffff;fill-opacity:0.87939698;stroke:#00000f;stroke-width:0.89999998;stroke-linecap:butt;stroke-linejoin:round;stroke-miterlimit:4;stroke-dasharray:none;stroke-opacity:0.94117647;paint-order:normal" />
      <path
         inkscape:connector-curvature="0"
         class="cls-4"
         d="m 60.392856,37.238681 c -0.567978,-1.661431 -1.715524,-2.391688 -3.767197,-2.731701 -2.051673,-0.340014 -8.658758,0.04636 -10.50565,1.00845 -1.846891,0.962084 -2.391686,1.715523 -2.836022,3.118079 -0.59116,1.873939 0.386379,7.476437 1.452785,8.987179 0.772758,1.07027 1.209366,1.089589 2.816704,1.286643 2.901708,0.355468 7.634852,0.405698 10.154045,-0.38638 1.982124,-0.637525 3.044667,-1.043223 3.380817,-3.091033 0.216372,-1.321417 -0.220236,-6.796409 -0.695482,-8.191237 z"
         id="path3801-6"
         style="fill:#ffffff;fill-opacity:0.87939698;stroke:#00000f;stroke-width:0.89999998;stroke-linecap:butt;stroke-linejoin:round;stroke-miterlimit:4;stroke-dasharray:none;stroke-opacity:0.94117647;paint-order:normal" />
      <path
         inkscape:connector-curvature="0"
         class="cls-5"
         d="m 43.048295,40.46881 c -1.835299,-2.44578 -6.019786,-1.545517 -6.471849,0"
         id="path3803-9"
         style="fill:#ffffff;fill-opacity:0;stroke:#00000f;stroke-width:0.89999998;stroke-linecap:butt;stroke-linejoin:round;stroke-miterlimit:4;stroke-dasharray:none;stroke-opacity:0.94117647;paint-order:normal" />
    </g>
  </g>
  <g
     inkscape:groupmode="layer"
     id="layer4"
     inkscape:label="Symbol">
    <text
       xml:space="preserve"
       style="font-style:normal;font-variant:normal;font-weight:bold;font-stretch:normal;font-size:240px;line-height:1.25;font-family:Consolas;-inkscape-font-specification:'Consolas Bold';letter-spacing:0px;word-spacing:0px;fill:#808080;fill-opacity:1;stroke:#ffffff;stroke-width:4;stroke-linecap:butt;stroke-linejoin:round;stroke-miterlimit:4;stroke-dasharray:none;stroke-dashoffset:0;stroke-opacity:1;paint-order:normal"
       x="114.91525"
       y="235.38878"
       id="text7846"><tspan
         sodipodi:role="line"
         id="tspan7844"
         x="114.91525"
         y="235.38878"
         style="font-style:normal;font-variant:normal;font-weight:bold;font-stretch:normal;font-size:240px;font-family:Consolas;-inkscape-font-specification:'Consolas Bold';fill:#808080;fill-opacity:1;stroke:#ffffff;stroke-linecap:butt;stroke-linejoin:round;stroke-opacity:1;paint-order:normal">&gt;</tspan></text>
  </g>
</svg>
